<svg xmlns="http://www.w3.org/2000/svg" width="112.833" height="82.667" viewBox="0 0 112.833 82.667"><g fill="#1B1B1B"><path d="M56.353 53.69c-4.258 0-8.447-.813-11.776-2.331l-26.024-8.981v17.395c0 7.679 5.898 10.642 15.127 15.219 0 0 11.562 5.598 22.673 5.598C67.889 80.59 79 74.993 79 74.993c8.3-4.15 15.175-7.54 15.175-15.219V42.379L68.103 51.36c-3.329 1.517-7.47 2.33-11.75 2.33z"/><path d="M108.426 20.999L64.678 2.557c-4.591-2.23-12.085-2.23-16.677 0L4.253 20.999c-4.592 2.248-4.592 5.888 0 8.125l43.748 15.052c4.592 2.254 12.086 2.254 16.677 0l36.991-12.722v10.949c0 1.916 1.713 3.479 3.808 3.479 2.068 0 3.758-1.563 3.758-3.479V28.701c3.781-2.254 3.545-5.609-.809-7.702zM109.234 61.934c0 1.907-1.689 3.472-3.758 3.472-2.094 0-3.808-1.565-3.808-3.472l1.928-7.368c0-.96.81-1.745 1.88-1.745 1.044 0 1.878.784 1.878 1.745l1.88 7.368z"/></g></svg>