<?xml version="1.0" encoding="utf-8"?>
<!-- Generator: Adobe Illustrator 22.0.1, SVG Export Plug-In . SVG Version: 6.00 Build 0)  -->
<svg version="1.1" id="Layer_1" xmlns="http://www.w3.org/2000/svg" xmlns:xlink="http://www.w3.org/1999/xlink" x="0px" y="0px"
	 viewBox="0 0 792 690.3" style="enable-background:new 0 0 792 690.3;" xml:space="preserve">
<style type="text/css">
	.st0{clip-path:url(#SVGID_2_);fill:#EC2227;}
	.st1{clip-path:url(#SVGID_2_);fill:#FFFFFF;}
</style>
<g>
	<defs>
		<rect id="SVGID_1_" width="792" height="690.3"/>
	</defs>
	<clipPath id="SVGID_2_">
		<use xlink:href="#SVGID_1_"  style="overflow:visible;"/>
	</clipPath>
	<path class="st0" d="M190.4,635c-21.5,2.3-42.1-1.1-58-5.4c36.5-22.4,44.6-48.9,44.1-68.9l-0.2-8l-6.9-4.1
		C96.3,505.3,51.8,441.8,44.1,370C28.3,223,173,86.5,366.6,65.7c193.6-20.8,364,81.9,379.7,228.9c15.8,147-128.9,283.5-322.5,304.3
		c-49.9,5.4-98.9,2.7-145.8-7.8l-8.5-1.9l-5.7,6.7C244.5,618.7,219.8,631.9,190.4,635"/>
	<path class="st1" d="M368.1,80.1c91.3-9.8,179.8,8.1,249.1,50.5c66.9,40.9,107.6,99.7,114.7,165.6c7.1,65.9-20.2,132-76.9,186.2
		c-58.8,56.1-141.4,92.4-232.7,102.2c-48.3,5.2-95.8,2.6-141.1-7.6l-17.1-3.8l-11.3,13.4c-17.1,20.2-38,31.4-63.9,34.2
		c-7.8,0.8-15.4,0.8-22.7,0.3c21.3-22.3,29.6-47.2,30.1-57.6c0.6-9.5-0.6-15.4-0.6-15.4l-18.9-11.8
		C107.7,495.2,65.7,435.7,58.5,368.5c-7.1-65.9,20.2-132,76.9-186.2C194.2,126.2,276.8,89.9,368.1,80.1 M365,51.4
		c-201.9,21.7-352,165-335.3,320.2c8.5,79,58.5,145.8,132.3,189.5c0.5,19.4-9.9,48.7-66.4,70.4c0,0,45.4,23.4,96.4,18
		c28.2-3,58-14.8,82.9-44.3c46.9,10.6,97.9,13.8,150.5,8.1c201.9-21.7,352-165,335.3-320.2C744,137.9,566.9,29.7,365,51.4"/>
	<path class="st0" d="M176.4,651.6c-44.2,0-81-18.7-81.4-18.9l-2.7-1.4l2.9-1.1c54.4-20.9,65.8-48.6,65.6-68.3
		c-77.1-45.9-124-113.4-132.3-190.1C11.6,216,162.6,71.7,364.9,50c97.9-10.5,193.2,8.9,268.1,54.7c75.1,45.9,120.9,112.7,129,188.2
		c16.7,155.7-134.3,300-336.5,321.7c-51.3,5.5-101.8,2.8-150.2-8c-22,25.7-50,40.5-83.2,44.1C186.8,651.3,181.5,651.6,176.4,651.6
		 M99,631.6c10.7,4.9,50,21.1,92.8,16.5c32.8-3.5,60.4-18.3,82-43.8l0.5-0.6l0.8,0.2c48.3,10.9,98.8,13.6,150.1,8.1
		C626,590.3,775.9,447.4,759.3,293.2c-8-74.6-53.4-140.7-127.7-186.1c-74.5-45.5-169.1-64.8-266.4-54.3
		C164.4,74.3,14.5,217.3,31.1,371.4c8.2,76,54.9,143,131.6,188.4l0.7,0.4l0,0.8C163.9,581.3,153,609.9,99,631.6 M176.2,622.7
		c-3.3,0-6.7-0.1-10.1-0.4l-2.9-0.2l2-2.1c20.6-21.7,29.2-46.3,29.7-56.8c0.5-7.6-0.2-12.8-0.5-14.5L176,537.3
		C106.6,496.2,64.4,436.3,57.1,368.6c-7.1-66.3,20.3-132.9,77.4-187.3C193.4,125,276.4,88.6,368,78.7c91.6-9.8,180.4,8.1,250,50.6
		c67.3,41.1,108.2,100.3,115.4,166.6c7.1,66.3-20.3,132.9-77.4,187.3c-59,56.3-141.9,92.7-233.5,102.6c-48.4,5.2-96.1,2.7-141.6-7.6
		l-16.3-3.7l-10.8,12.8c-17.3,20.5-38.5,31.8-64.8,34.7C184.9,622.5,180.6,622.7,176.2,622.7 M169.1,619.8
		c6.8,0.4,13.3,0.2,19.6-0.5c25.5-2.7,46.1-13.8,63-33.7l11.9-14l17.9,4c45.2,10.2,92.5,12.7,140.7,7.5
		c91-9.8,173.4-45.9,231.9-101.8c56.4-53.8,83.6-119.5,76.5-185c-7-65.5-47.5-123.9-114.1-164.5c-69.1-42.2-157.2-60-248.3-50.3
		l-0.1-1.4l0.1,1.4c-91,9.8-173.4,45.9-231.9,101.8c-56.4,53.8-83.6,119.5-76.5,185C67,435.1,108.8,494.3,177.4,535l19.4,12.1
		l0.1,0.6c0.1,0.2,1.3,6.1,0.6,15.8C197.1,574.3,189,598,169.1,619.8"/>
	<polygon class="st1" points="215.6,284.5 213.9,229.6 195.2,234.3 194.9,221.6 246,208.7 246.4,221.4 227.7,226.1 229.3,281.1 	"/>
	<path class="st1" d="M249.4,246.7c-5.3-20.9,6.7-41.6,27.8-47c17.7-4.5,34.2,3.2,38.6,20.7c5.3,20.9-6.6,41.7-27.7,47
		C270.4,272,253.8,264.3,249.4,246.7 M301.9,225c-2.7-10.8-12.2-15.5-22.5-12.9c-12.4,3.1-19.5,16.4-16,30.2
		c2.7,10.9,12.2,15.5,22.5,12.9C298.2,252.1,305.3,238.7,301.9,225"/>
	<path class="st1" d="M361.2,247.9L347.9,227l-10.6,2.7l0.7,24l-13.6,3.4l-2-67.6l27.4-6.9c10.4-2.6,21.5,1.9,24.3,13.1
		c2.9,11.6-2.8,22.4-12.6,26.9l14.8,21.5L361.2,247.9z M351.3,213.4c7.1-1.8,10.3-7,8.8-12.8c-1.1-4.3-5.7-6.4-9.9-5.4l-13.7,3.5
		L337,217l14.1-3.6L351.3,213.4z"/>
	<path class="st1" d="M379.9,213.8c-5.3-20.9,6.7-41.6,27.8-47c17.7-4.5,34.2,3.2,38.6,20.7c5.3,21-6.6,41.7-27.7,47
		C400.9,239.1,384.3,231.4,379.9,213.8 M432.4,192.1c-2.7-10.8-12.2-15.5-22.5-12.9c-12.4,3.1-19.5,16.4-16,30.2
		c2.7,10.9,12.2,15.5,22.5,12.9C428.7,219.2,435.8,205.9,432.4,192.1"/>
	<polygon class="st1" points="499.1,213.2 467.3,175.2 468.5,220.9 454.9,224.3 452.9,156.6 466.9,153.1 497.8,189.7 496.6,145.6 
		510.3,142.2 512.3,209.8 	"/>
	<polygon class="st1" points="537.3,203.5 535.7,148.6 516.9,153.3 516.6,140.6 567.7,127.7 568.1,140.4 549.4,145.1 551.1,200.1 	
		"/>
	<path class="st1" d="M571.1,165.7c-5.3-20.9,6.7-41.6,27.8-47c17.7-4.4,34.2,3.2,38.6,20.7c5.3,20.9-6.6,41.7-27.7,47
		C592.1,191,575.6,183.3,571.1,165.7 M623.6,144c-2.7-10.8-12.2-15.5-22.5-12.9c-12.4,3.1-19.5,16.4-16,30.2
		c2.7,10.9,12.2,15.5,22.5,12.9C619.9,171.1,627.1,157.8,623.6,144"/>
	<path class="st1" d="M262.4,384.7l-18.1-28.4l-14.4,3.6l1,32.7l-18.6,4.7l-2.7-92.1l37.3-9.4c14.1-3.6,29.3,2.6,33.1,17.8
		c4,15.8-3.7,30.4-17.2,36.6l20.2,29.3L262.4,384.7z M248.9,337.7c9.7-2.4,14-9.5,12-17.4c-1.5-5.9-7.8-8.8-13.5-7.3l-18.7,4.7
		l0.7,24.9l19.2-4.8L248.9,337.7z"/>
	<polygon class="st1" points="291.8,377.3 289.1,285.2 350.8,269.6 351.3,286.9 308.2,297.7 308.8,317.2 350.9,306.6 351.4,323.9 
		309.3,334.5 309.9,355.3 353,344.5 353.6,361.7 	"/>
	<path class="st1" d="M428,343l-5.9-14.2l-37.4,9.4l-5,17l-22.1,5.6l31-100.6l23.3-5.9l36.3,83.6L428,343z M401.7,276.6l-12.4,43
		l27.1-6.8L401.7,276.6z"/>
	<polygon class="st1" points="453,336.7 450.2,244.6 468.8,239.9 471.1,314.8 507.8,305.5 508.4,322.7 	"/>
	<polygon class="st1" points="521.9,319.3 519.6,244.5 494.1,251 493.7,233.7 563.2,216.2 563.8,233.4 538.3,239.8 540.6,314.6 	"/>
	<polygon class="st1" points="602.2,299.1 601.1,261.4 565.9,215.5 586,210.4 608.8,242 629.2,199.6 651.4,194 619.6,256.8 
		620.8,294.5 	"/>
	<path class="st1" d="M217.2,489.9l-2.3-76.1l35-8.8c12.5-3.2,21.6,3.2,23.9,12.4c2.4,9.7-3.2,19.9-11.7,22.9
		c7.1,0,12.4,5.6,14.1,12c2.5,10.1-1.6,23.2-19.7,27.7L217.2,489.9z M258.1,424.1c-1-3.8-4.8-5.9-9-4.8l-18.3,4.6l0.5,16.5l19.4-4.9
		C258,433.7,259.2,428.3,258.1,424.1 M260.6,454.9c-1.1-4.3-4.9-6.6-9.7-5.4l-19.2,4.8l0.5,17.7l19.9-5
		C258.9,465.3,261.8,459.9,260.6,454.9"/>
	<polygon class="st1" points="285.8,472.6 283.6,396.5 297.3,393.1 299.6,469.2 	"/>
	<path class="st1" d="M306.8,443.6c-4.1-16.3,4.7-34.3,22.3-38.7c16.6-4.2,28.5,3.6,31.9,17.3c4.1,16.2-4.7,34.2-22.5,38.6
		C322,464.9,310.2,457.2,306.8,443.6 M347,426.3c-1.9-7.6-7.6-11.1-15.2-9.2c-9.3,2.3-13.3,12.8-11,22.1c1.9,7.6,7.6,11.1,15.3,9.1
		C345.3,446.1,349.3,435.7,347,426.3"/>
	<path class="st1" d="M369.6,464.4l5.7-11.2c4.5,3.8,11.9,4.5,18.7,2.8c6.4-1.6,11.7-6,11.4-17.2l-0.1-5c-2.8,5.9-7.6,10.3-14,11.9
		c-10.5,2.6-21.2-1.1-25-16.2c-4-15.9,2-34.4,19-38.7c6.3-1.6,13.9-0.2,18.9,4l-0.2-7.3l13.8-3.5l1.4,51.4
		c0.7,20.9-11,29.1-22.2,31.9C386.9,469.7,377.5,469.6,369.6,464.4 M405.1,422.9l-0.4-17.1c-3.5-3.5-8.9-4.7-14.4-3.3
		c-8.5,2.2-12.7,11.2-10.3,20.6c1.8,7.1,7.7,10.5,14.8,8.7C399.3,430.6,403.1,426.9,405.1,422.9"/>
	<path class="st1" d="M428.6,429.5c-1.3-5.2,2-10.6,7.2-11.9c4.4-1.1,8.8,1.7,9.9,6.1c1.3,5.2-1.9,10.6-7.1,11.9
		C434.2,436.7,429.7,433.9,428.6,429.5"/>
	<path class="st1" d="M451.3,407.1c-4.3-17.2,5.4-34.3,22.6-38.7c10.7-2.7,18.7-0.1,23.8,4.9l-8.3,10.5c-3.1-3.1-7.7-4.4-12.4-3.2
		c-9.8,2.5-14.3,12.5-11.9,22.3c2,7.9,8.9,10.7,16.2,8.9c4.4-1.1,7.8-4.3,9.6-7.9l9.8,7.3c-2.9,5.1-8.5,10.9-17.7,13.2
		C467.4,428.3,454.9,421.3,451.3,407.1"/>
	<path class="st1" d="M502.5,394.3c-4.1-16.3,4.7-34.3,22.3-38.7c16.7-4.2,28.5,3.6,31.9,17.3c4.1,16.2-4.7,34.2-22.5,38.6
		C517.6,415.7,505.9,407.9,502.5,394.3 M542.6,377.1c-1.9-7.6-7.6-11.1-15.2-9.2c-9.3,2.3-13.3,12.8-11,22.1
		c1.9,7.6,7.6,11.1,15.3,9.1C540.9,396.8,545,386.5,542.6,377.1"/>
	<path class="st1" d="M630.3,385.9l-0.9-33.3c-0.1-0.7-0.1-2.3-0.4-3.6c-1-4-5-5.4-9-4.4c-4.2,1.1-7.5,5.1-9.4,8.8l1.2,37.2
		l-13.8,3.5l-0.9-33.3c-0.1-1.1-0.1-2.5-0.4-3.9c-0.9-3.3-4.3-5.2-9.2-4c-4.1,1-7.3,5.2-9.2,8.7l1.1,37.2l-13.7,3.5l-1.6-55.1
		l13.7-3.5l0.2,7.2c2.1-3.9,6.2-10.2,13.8-12.1c10.3-2.6,16.3,3.8,16.8,5.8c0.1,0.2,0,0.1,0.1,0.2c2.8-6.1,7.6-12.2,15.6-14.2
		c7.9-2,16.1,1,18.3,9.5c0.4,1.4,0.5,3.5,0.5,4.5l1.1,37.9L630.3,385.9z"/>
	<path class="st1" d="M178.2,361.4l-0.3,0l-3.6-4c-0.5-3.7-1.8-6.5-2.9-6.4l-8.1,0.9c-0.5-4.2-1.3-7.3-1.8-7.3l-3.6,0.4
		c-2.6-23.2-5.2-45.6-7.5-65.2l4-0.8l1.1-2.5l0,0l-0.2-2.1l-1.6-2.3l-4.9,0.1c-4-33.9-7.1-58.9-7.1-58.9s-0.3-2.9-1.7-3.4l0-0.1
		c-0.1,0-0.2,0.1-0.3,0.1c-0.1,0-0.2,0-0.3,0l0,0.1c-1.2,0.7-0.9,3.7-0.9,3.7s2.2,25.1,5.5,59l-4.8,1l-1.1,2.5l0.2,2.1l0,0l1.6,2.2
		l4.1,0c1.9,19.6,4.1,42.1,6.5,65.3l-3.6,0.4c-0.5,0.1-0.6,3.3-0.2,7.5l-8.1,0.9c-1.1,0.1-1.8,3.1-1.5,6.8l0,0l-2.7,4.7l-0.3,0
		c-1.6,0.2-2.4,4.1-2.1,9l0.3,2.6c0.7,4.9,2.4,8.6,4,8.4l0.7-0.1l2.8,3c-1.1,0.7-1.7,3.2-1.4,6c0.4,3.3,1.8,5.8,3.2,5.7l12.7-1.4
		c0.1,0.8,0.2,1.5,0.3,2.3c14.4,120.7,3.8,150.9,3.8,150.9l18.4,1.7l17.6-5.6c0,0-16.8-27.3-28.4-148.3c-0.1-0.8-0.2-1.5-0.2-2.3
		l12.7-1.4c1.4-0.2,2.3-2.9,1.9-6.2c-0.3-2.8-1.4-5.1-2.6-5.6l2.1-3.6l0.6-0.1c1.6-0.2,2.4-4.1,2.1-9l-0.3-2.6
		C181.5,364.9,179.8,361.2,178.2,361.4"/>
</g>
</svg>
