<?xml version="1.0" encoding="utf-8"?>
<!-- Generator: Adobe Illustrator 22.0.1, SVG Export Plug-In . SVG Version: 6.00 Build 0)  -->
<svg version="1.1" id="Layer_1" xmlns="http://www.w3.org/2000/svg" xmlns:xlink="http://www.w3.org/1999/xlink" x="0px" y="0px"
	 viewBox="0 0 67 23" enable-background="new 0 0 67 23" xml:space="preserve">
<g>
	<g>
		<polygon fill="#EC2327" points="23.1,1.5 21.5,0.1 1.6,0.1 0,1.5 		"/>
		<polygon fill="#EC2327" points="29,6.9 27.4,5.5 7.5,5.5 5.9,6.9 		"/>
		<polygon fill="#EC2327" points="34.9,12.3 33.3,10.8 13.3,10.8 11.8,12.3 		"/>
		<polygon fill="#EC2327" points="40.8,17.6 39.1,16.2 19.3,16.2 17.7,17.6 		"/>
		<polygon fill="#EC2327" points="25.1,21.5 23.5,23 46.6,23 45,21.5 		"/>
		<path fill="#EC2327" d="M25.2,0l19.9,18.3h2.8L64.7,2.5v18.9H47.9l1.7,1.6H67V0H25.2z M46.5,17L29.7,1.6H63L46.5,17z"/>
	</g>
</g>
</svg>
