<svg id="Layer_1" xmlns="http://www.w3.org/2000/svg" viewBox="0 0 182 98">
  <style>
    .black{fill:#231f20}.red{fill:#ec2428}
  </style>
  <path class="black" d="M38 63.1c0 5.1-1.7 8.9-5 11.6-3.3 2.7-8.1 4-14.2 4h-5.1v18.1h-8V48.5h14c6.1 0 10.7 1.2 13.7 3.7 3.1 2.4 4.6 6.1 4.6 10.9zm-24.3 9h4.2c4.1 0 7.1-.7 9-2.1 1.9-1.4 2.9-3.6 2.9-6.6 0-2.8-.9-4.9-2.6-6.2-1.7-1.4-4.4-2.1-8-2.1h-5.5v17zM46.4 50.6c0-1.4.4-2.5 1.2-3.2.8-.7 1.9-1.1 3.3-1.1s2.5.4 3.2 1.1c.8.8 1.2 1.8 1.2 3.2 0 1.3-.4 2.4-1.2 3.1-.8.8-1.8 1.1-3.2 1.1-1.4 0-2.5-.4-3.3-1.1-.8-.8-1.2-1.8-1.2-3.1zm8.3 46.2h-7.8V60.2h7.8v36.6zM80.8 97.5c-5.6 0-9.8-1.6-12.7-4.8-2.9-3.2-4.4-7.9-4.4-13.9 0-6.2 1.5-10.9 4.6-14.2 3-3.3 7.4-5 13.2-5 3.9 0 7.4.7 10.5 2.2L89.6 68c-3.3-1.3-6-1.9-8.2-1.9-6.4 0-9.6 4.2-9.6 12.6 0 4.1.8 7.2 2.4 9.2 1.6 2.1 3.9 3.1 7 3.1 3.5 0 6.8-.9 9.9-2.6v6.8c-1.4.8-2.9 1.4-4.5 1.8-1.6.3-3.5.5-5.8.5zM107.3 77.5l4.4-5.5 11.1-11.8h9L117.1 76l15.8 20.9h-9.2l-11.8-16-4.3 3.5v12.5h-7.8V45.4h7.8v25.1l-.4 7h.1z"/>
  <g class="red">
    <path d="M75.5 36.8L41.7 3.3 22.1 22.7v-6.8H10.5v18.3l-7.2 7.2 1.4 1.5 37-36.7 33 32.7h55.4v-2.1H75.5z"/>
    <path d="M4.7 45.6L.5 41.4l8-8V14h15.6v4L41.7.5l34.6 34.4h55.8v6H73.9l-32.2-32-37 36.7zm7.8-27.7v14.5l7.7-7.6v-6.9h-7.7z"/>
  </g>
  <g>
    <path class="red" d="M160.3 58.3c6.6 0 11.8 1.6 15.5 4.9 3.8 3.2 5.7 7.7 5.7 13.3 0 6.4-2.1 11.5-6.2 15.1-4.1 3.6-9.8 5.5-17 5.5-7 0-12.4-1.1-16.1-3.4v-6.8c2 1.3 4.5 2.3 7.4 3 3 .7 5.9 1.1 8.8 1.1 5 0 8.9-1.2 11.7-3.5 2.8-2.3 4.2-5.7 4.2-10.2 0-8.7-5.3-13-16-13-2.7 0-6.3.4-10.9 1.2l-3.7-2.3 2.4-29h31.1v6.5h-25l-1.6 18.6c3.2-.7 6.4-1 9.7-1z"/>
  </g>
</svg>
