<?xml version="1.0" encoding="UTF-8"?>
<svg width="64px" height="64px" viewBox="0 0 64 64" version="1.1" xmlns="http://www.w3.org/2000/svg" xmlns:xlink="http://www.w3.org/1999/xlink">
    <!-- Generator: Sketch 56.2 (81672) - https://sketch.com -->
    <title>Oval 2</title>
    <desc>Created with Sketch.</desc>
    <g id="Desktop" stroke="none" stroke-width="1" fill="none" fill-rule="evenodd">
        <g id="Desktop-/-Wiki-Profile" transform="translate(-535.000000, -120.000000)">
            <g id="Stacked-Group-3" transform="translate(535.000000, 120.000000)">
                <g id="Oval-2">
                    <circle id="Oval" fill="#3A78FC" fill-rule="nonzero" cx="32" cy="32" r="32"></circle>
                    <path d="M29.0485561,31.6859319 C28.2330639,28.9118152 27.3716432,26.2708561 26.5154816,23.0500627 C26.3408835,22.7358389 26.3903179,22.2905712 26.0793369,22.2873914 C25.9019341,22.2852872 25.6761486,22.6403741 25.5842918,22.9514274 C24.4420417,26.1521416 22.8008898,30.4177642 22.2981315,31.8398733 C22.1610474,32.1956648 22.1147684,32.4186509 22.2024181,32.5525131 C22.3338925,32.6881365 22.5119966,32.645512 22.7781009,32.6483302 C24.7312855,32.6684095 27.3502567,32.7392155 28.5058296,32.7061023 C28.7719339,32.7089204 28.994564,32.6670004 29.083616,32.5789332 C29.1747716,32.4013898 29.1337516,32.0434847 29.0485561,31.6859319 Z M41.3717449,46.8459927 C40.1726978,46.8334895 38.3997209,46.5477995 35.6478728,46.519618 C34.049494,46.5030614 30.7188077,46.5139817 29.1193771,46.6756731 L28.9609065,44.7561605 C29.2273614,44.7589786 29.5390435,44.7177632 29.8500245,44.6311051 C31.3618054,44.423971 32.2533776,44.0755772 32.2642461,43.0050324 C32.2761665,41.8450113 31.1132311,38.2198132 30.2977388,35.4904347 C30.1662644,35.2663918 29.9485426,34.8623395 29.9485426,34.8623395 C29.7280162,34.7260114 29.3286844,34.6773984 28.7523004,34.6717621 C27.2867984,34.6566145 24.8427758,34.8549418 22.7563638,34.8334534 C21.3799139,34.8197149 21.1106542,35.1293592 20.9258887,35.7965563 C19.8302682,38.7746366 18.9593814,41.4867539 18.9481623,42.5572987 C18.9379949,43.5831054 19.2885935,44.0769863 21.0615704,44.3633808 C21.5043763,44.456732 22.036585,44.5071064 22.6140208,44.5574809 L22.550913,46.3861081 C21.8388474,46.5573108 21.5278664,46.5988785 20.9504306,46.5925376 C19.7513835,46.5809128 18.7325441,46.3470063 17.3115682,46.3325633 C16.2015731,46.3212907 13.9367064,46.4769935 12.2033472,46.6372758 L12,44.7617968 C14.2701257,44.2052121 15.2149888,43.0099641 16.4852074,40.2573359 C19.8432404,33.1087455 23.7383904,21.1037777 24.7407516,18.526227 C25.2428088,17.2376278 25.4282754,16.4809544 26.3671784,15.8215073 C27.3947827,15.1627647 28.2442831,14.6364751 29.6266932,14.025641 L30.9495015,14.8422001 C31.1482909,17.1640036 31.7358941,20.6053173 32.3375212,22.5294094 C33.1957865,25.4824786 35.7383273,33.136927 37.6848505,38.1532344 C39.7193739,43.3939371 40.1123949,44.0220323 41.6620405,44.4838567 C41.927093,44.5757989 42.3257236,44.7135359 42.7692308,44.7184677 L42.7509996,46.5918331 C42.2159862,46.7644448 41.9043041,46.8503984 41.3717449,46.8459927 Z M44.207627,13.4448979 C44.9475099,14.1049729 45.0287938,15.2586423 44.3898494,16.0225957 L39.7246892,21.5976324 C39.0857448,22.3619297 37.9680918,22.445858 37.2288751,21.7861269 C36.4883259,21.1263959 36.407042,19.9720386 37.0459864,19.2087732 L41.7104804,13.6333925 C42.350091,12.8687512 43.467744,12.7848229 44.207627,13.4448979 Z M51.9013319,23.4738857 C52.2220468,24.4390015 51.7351583,25.4936281 50.8142246,25.8297294 L44.0905111,28.2813533 C43.1695774,28.6171063 42.1628981,28.1072075 41.8421832,27.1417435 C41.5214683,26.1766278 42.0090214,25.1220011 42.9299551,24.7858998 L49.6536687,22.3339276 C50.5746024,21.9985229 51.580617,22.5077251 51.9013319,23.4738857 Z M51.9261804,38.2276315 C51.6353629,39.2801464 50.5736081,39.8899487 49.5541211,39.5904556 L42.1120828,37.400762 C41.0925959,37.1008959 40.5012067,36.0043707 40.7920242,34.9518557 C41.0824805,33.8993407 42.1445966,33.2895385 43.1640836,33.5890316 L50.6061218,35.7787252 C51.6256088,36.0785913 52.2162754,37.1751165 51.9261804,38.2276315 Z" id="Combined-Shape" fill="#FFFFFF"></path>
                </g>
            </g>
        </g>
    </g>
</svg>