<?xml version="1.0" encoding="UTF-8"?>
<svg width="118px" height="24px" viewBox="0 0 118 24" version="1.1" xmlns="http://www.w3.org/2000/svg" xmlns:xlink="http://www.w3.org/1999/xlink">
    <!-- Generator: Sketch 56.2 (81672) - https://sketch.com -->
    <title>ANSWERS LOGO</title>
    <desc>Created with Sketch.</desc>
    <g id="Symbols" stroke="none" stroke-width="1" fill="none" fill-rule="evenodd">
        <g id="Header-/-Desktop" transform="translate(-62.000000, -18.000000)" fill="#FFFFFF">
            <g id="Header-Content" transform="translate(24.000000, 12.000000)">
                <path d="M152.867257,15.3913043 L153.440137,15.3913043 L154.431132,18.0225583 L155.42712,15.3913043 L156,15.3913043 L156,18.5217391 L155.604351,18.5217391 L155.604351,15.9165618 L155.595614,15.9165618 L154.613355,18.5217391 L154.255149,18.5217391 L153.272891,15.9165618 L153.265402,15.9165618 L153.265402,18.5217391 L152.867257,18.5217391 L152.867257,15.7427177 L151.996618,15.7427177 L151.996618,18.5217391 L151.649399,18.5217391 L151.649399,15.7427177 L150.778761,15.7427177 L150.778761,15.3913043 L152.867257,15.3913043 Z M77.6814159,29.580342 C77.4490519,29.7091138 77.1979109,29.8056926 76.927993,29.8700785 C76.6557281,29.9367639 76.3552977,29.9689568 76.0255285,29.9689568 C75.6711146,29.9620583 75.2322047,29.9356141 74.702931,29.8884745 C74.1771779,29.8401851 73.6995407,29.8137409 73.2794077,29.8056926 C72.908564,29.8056926 72.4802161,29.8206393 72.0002317,29.8574313 C71.5190738,29.8884745 71.0402629,29.9367639 70.5673199,30 C70.4347081,29.8010936 70.3525592,29.6021873 70.3161789,29.4078799 C70.2786252,29.215872 70.2856665,28.969826 70.3361294,28.6708915 C70.4969066,28.6363991 70.6482953,28.5950082 70.7879484,28.5513178 C70.9276016,28.5053278 71.0872052,28.4581882 71.2644121,28.408749 C71.460396,28.3501119 71.618826,28.2167411 71.7373552,28.0063373 C71.8605785,27.7970832 71.943901,27.4751538 71.9908432,27.0405491 C72.0401326,26.5886983 72.0753393,26.0149741 72.0952897,25.3216762 C72.1152402,24.6260787 72.1234551,23.8959889 72.1234551,23.1337061 C72.1234551,22.0196005 72.0753393,21.2090283 71.9814548,20.7008397 C71.8899174,20.1949507 71.7619998,19.7580465 71.5941813,19.3935765 C71.3935033,19.0567004 71.1012879,18.7807609 70.7210557,18.5600093 C70.3408236,18.3404075 69.8925253,18.2254327 69.3738135,18.2185342 C68.9935814,18.2231332 68.5534979,18.3174125 68.0500425,18.4990727 C67.5501076,18.6807328 67.2097764,18.9129819 67.0243546,19.1946701 C66.8835279,19.5074015 66.8013789,20.0891739 66.7814285,20.9376878 C66.7603045,21.7862017 66.7532632,22.6933527 66.7603045,23.6568413 C66.7556103,25.144615 66.7649987,26.21618 66.7908169,26.868087 C66.8131145,27.519994 66.8706187,27.9235555 66.9621561,28.0856699 C67.0513464,28.2420356 67.1909995,28.3294164 67.3881569,28.3443632 C67.5125538,28.40415 67.6651161,28.4374927 67.8423231,28.4466907 C68.0242242,28.4535892 68.1943898,28.4639369 68.3504728,28.4731349 L68.3833323,29.6447279 C68.0629516,29.7712002 67.7695626,29.8574313 67.5055125,29.9045709 C67.2414624,29.9482613 66.9480734,29.9712563 66.6276927,29.9689568 C66.2861879,29.9620583 65.80503,29.9356141 65.1818718,29.8884745 C64.5563665,29.8401851 64.0599523,29.8137409 63.685588,29.8056926 C63.3581659,29.8056926 62.9967106,29.8206393 62.6023958,29.8574313 C62.2092546,29.8884745 61.7656505,29.9367639 61.2715834,30 C61.1577485,29.8194896 61.0779467,29.6194335 61.0333516,29.4078799 C60.9922771,29.1894278 60.9723267,28.965227 60.9734513,28.7352774 L62.6270405,28.3754063 C62.6599001,28.162703 62.6880654,27.8085807 62.7056688,27.3130394 C62.7267928,26.8197976 62.7397019,26.3081598 62.7479168,25.7723773 C62.7537846,25.2377446 62.7608259,24.8042897 62.7608259,24.4720125 C62.7608259,23.7384734 62.7502639,23.0348278 62.7361812,22.3587761 C62.7197514,21.6815746 62.6939332,21.1124494 62.6599001,20.6582991 C62.6422968,20.3743113 62.5883132,20.1213668 62.4920816,19.9086635 C62.3935029,19.6913612 62.2632382,19.4625613 62.0989404,19.2291625 C61.9088243,19.0429034 61.7104933,18.8497458 61.4980797,18.6473901 C61.2868397,18.442735 61.1131534,18.2530266 60.9734513,18.0886127 L60.9734513,17.3746193 C61.4687408,17.0101493 62.1095024,16.5962401 62.8981319,16.1409399 C63.6914557,15.6810408 64.4495729,15.4315455 65.1748304,15.3913043 C65.638385,15.3970531 65.9974931,15.5384721 66.2474606,15.8224598 C66.497428,16.1052977 66.6253456,16.4939125 66.6276927,16.9860046 C66.6253456,17.1791622 66.6394282,17.3274797 66.6652465,17.426358 C66.6934118,17.5229368 66.7462218,17.5723759 66.8248501,17.5723759 C66.9363379,17.5723759 67.044305,17.5378835 67.1452308,17.4815459 C67.2438095,17.4240585 67.3599916,17.3447259 67.4890827,17.2469973 C68.3563405,16.6157858 69.1050692,16.1604856 69.7387894,15.8753482 C70.3772039,15.5913605 71.0602134,15.4499415 71.7936859,15.45684 C72.3628605,15.4602892 72.9050433,15.570665 73.4214079,15.7914166 C73.9401196,16.0041199 74.4001536,16.2973056 74.8015097,16.6606259 C75.3284363,17.1354718 75.7063213,17.7287416 75.9410325,18.4392858 C76.1769172,19.1532792 76.2942728,20.0535317 76.2895786,21.1480916 C76.2860579,21.8678338 76.2719753,22.6899034 76.2449835,23.6108514 C76.2179917,24.5363984 76.1992148,25.4240037 76.1921735,26.2702181 C76.1839586,27.1198817 76.2062561,27.7913345 76.2555455,28.276528 L77.6814159,28.4731349 L77.6814159,29.580342 Z M88.1238938,25.4407755 C88.0944963,26.8158692 87.5559343,27.9159441 86.4976246,28.7376189 C85.4463703,29.5581666 84.0411703,29.9797117 82.2879039,30 C81.4612465,29.9943644 80.7357164,29.8951773 80.1042583,29.7013116 C79.475152,29.5063188 78.9189515,29.2594783 78.4462398,28.9506457 C78.1358023,28.7579072 77.9311958,28.5268464 77.8277166,28.2608447 C77.7230616,27.9937158 77.6760256,27.5969675 77.6819051,27.0672183 C77.6819051,26.8519372 77.6854328,26.6456732 77.6924882,26.4551889 C77.6995436,26.2624504 77.718358,26.0392794 77.7489314,25.7901846 C77.9029742,25.7800405 78.0781833,25.7608793 78.2663272,25.7372097 C78.4579988,25.7090315 78.7402148,25.7372097 79.1070954,25.8251255 C79.1882325,26.6727242 79.4974941,27.3287115 80.0395838,27.7829433 C80.5793218,28.2349208 81.2625195,28.4671087 82.0903528,28.4704901 C82.7617915,28.4671087 83.3379823,28.2957856 83.8189253,27.9576478 C84.30222,27.6206371 84.5573902,27.154007 84.5785564,26.5588845 C84.5656215,26.0708389 84.337497,25.6470396 83.8953587,25.2762152 C83.4543964,24.907645 82.885261,24.5368205 82.1867766,24.1626147 C81.7281757,23.9563507 81.291917,23.7241627 80.8732967,23.4694323 C80.4617318,23.2135747 80.0466392,22.9351746 79.6362503,22.6319777 C79.0953364,22.2510091 78.6531982,21.7990316 78.3133632,21.2794266 C77.9700005,20.7598215 77.7936155,20.155682 77.7818566,19.4692623 C77.8053745,18.1978642 78.2898452,17.2037391 79.241148,16.4857599 C80.1889231,15.7666535 81.4706537,15.4025919 83.0851639,15.3913043 C83.763658,15.3901935 84.3892366,15.4476769 84.958372,15.5626437 C85.5298592,15.6753563 86.0531346,15.8534422 86.5329016,16.0935201 C86.962105,16.2964027 87.2678389,16.5398619 87.4512792,16.8205163 C87.6394232,17.1000435 87.7287915,17.4291643 87.7264397,17.8146414 C87.7217361,18.1257282 87.7040976,18.3782044 87.675876,18.5788328 C87.6464786,18.7749527 87.630016,18.9710726 87.6241365,19.153667 C87.4795008,19.2291845 87.2149234,19.260744 86.8351078,19.2393286 C86.4517645,19.2212946 86.2318713,19.1705739 86.1695486,19.0882937 C86.0401997,18.2666189 85.7532801,17.668115 85.3076142,17.2995448 C84.8666518,16.934356 84.2469527,16.7506345 83.4508687,16.7607786 C82.8194106,16.7675414 82.2890798,16.9185763 81.8610524,17.2138833 C81.431849,17.5080631 81.2107799,17.9014301 81.1943173,18.3872214 C81.2037245,18.7839697 81.3742299,19.1378873 81.7046577,19.4523554 C82.0339096,19.7645693 82.4595853,20.048605 82.9863883,20.3022084 C83.5978561,20.5884983 84.1422977,20.8668985 84.6244165,21.1419172 C85.1065354,21.418063 85.5427941,21.6908275 85.9378964,21.9590835 C86.5787617,22.3896456 87.102037,22.894598 87.5018429,23.4728136 C87.9040006,24.0521564 88.1121348,24.7058894 88.1238938,25.4407755 Z M121.889434,18.6734988 C121.87513,18.1381133 121.692761,17.7030422 121.339941,17.3682855 C120.984737,17.0357829 120.538944,16.8644596 120.006139,16.8543155 C119.591337,16.8644596 119.166999,16.9782994 118.739086,17.2003435 C118.313557,17.4212604 117.948817,17.6872625 117.652019,18.0039852 C117.274168,18.3996068 116.970219,18.8031184 116.734211,19.2100113 C116.500587,19.61465 116.380199,19.9358812 116.374239,20.1737051 C116.370664,20.2717651 116.408806,20.3461555 116.495819,20.403639 C116.58164,20.4633768 116.731827,20.4893007 116.945188,20.4938092 C117.373101,20.4893007 117.780751,20.4791565 118.180057,20.4532326 C118.581747,20.4273087 119.041844,20.3980034 119.569882,20.3653167 C120.428092,20.3033247 121.039567,20.1342556 121.384043,19.8558552 C121.735671,19.5763276 121.901353,19.1829603 121.889434,18.6734988 Z M125.716814,21.5769784 L116.104857,21.6739114 C116.102473,21.7832427 116.096513,21.8903198 116.088169,21.9928884 C116.077442,22.0943298 116.07029,22.2036612 116.07029,22.3129925 C116.095321,23.602426 116.566145,24.6630527 117.482761,25.4926183 C118.399378,26.3233111 119.610408,26.7527465 121.113468,26.7797976 C121.823876,26.792196 122.425815,26.6761019 122.922862,26.4360238 C123.415141,26.1936914 123.901461,25.764256 124.372284,25.1522259 L125.348499,25.7281879 C124.756095,27.0796134 123.896693,28.1244603 122.773867,28.8694914 C121.648658,29.6122682 120.379222,29.9898559 118.965558,30 C116.901085,29.9526607 115.253798,29.2594774 114.028464,27.9125604 C112.801938,26.5656434 112.171392,24.8467744 112.141593,22.7593349 C112.171392,20.6617511 112.828161,18.9271024 114.103557,17.541863 C115.380146,16.1577508 117.100142,15.4420251 119.26474,15.3913043 C121.206441,15.414974 122.75122,15.9853004 123.901461,17.0955207 C125.052893,18.2034867 125.658408,19.7003116 125.716814,21.5769784 Z M149.734513,25.4407755 C149.712165,26.8158692 149.165219,27.9159441 148.110144,28.7376189 C147.055068,29.5581666 145.653006,29.9797117 143.899251,30 C143.072364,29.9943644 142.346632,29.8951773 141.716174,29.7013116 C141.082188,29.5063188 140.531713,29.2594783 140.056518,28.9506457 C139.74717,28.7579072 139.540154,28.5268464 139.436646,28.2608447 C139.334314,27.9937158 139.283737,27.5969675 139.293146,27.0672183 C139.293146,26.8519372 139.293146,26.6456732 139.299028,26.4551889 C139.308437,26.2624504 139.326081,26.0392794 139.360191,25.7901846 C139.510748,25.7800405 139.683654,25.7608793 139.875379,25.7372097 C140.06828,25.7090315 140.349398,25.7372097 140.716381,25.8251255 C140.798717,26.6727242 141.106888,27.3287115 141.646777,27.7829433 C142.189017,28.2349208 142.871229,28.4671087 143.700469,28.4704901 C144.370918,28.4671087 144.948446,28.2957856 145.42717,27.9576478 C145.914128,27.6206371 146.164664,27.154007 146.189365,26.5588845 C146.17525,26.0708389 145.948239,25.6470396 145.507154,25.2762152 C145.061364,24.907645 144.493246,24.5368205 143.801624,24.1626147 C143.339367,23.9563507 142.900635,23.7241627 142.485426,23.4694323 C142.071395,23.2135747 141.657363,22.9351746 141.244507,22.6319777 C140.706971,22.2510091 140.26471,21.7990316 139.922428,21.2794266 C139.580146,20.7598215 139.404888,20.155682 139.393126,19.4692623 C139.414298,18.1978642 139.897727,17.2037391 140.848118,16.4857599 C141.799686,15.7666535 143.08295,15.4025919 144.694381,15.3913043 C145.376592,15.3901935 145.998816,15.4476769 146.571639,15.5626437 C147.139757,15.6753563 147.66553,15.8534422 148.144254,16.0935201 C148.570049,16.2964027 148.87822,16.5398619 149.064064,16.8205163 C149.25226,17.1000435 149.34283,17.4291643 149.335772,17.8146414 C149.331067,18.1257282 149.3146,18.3782044 149.287547,18.5788328 C149.260494,18.7749527 149.240498,18.9710726 149.240498,19.153667 C149.089941,19.2291845 148.828819,19.260744 148.447721,19.2393286 C148.065447,19.2212946 147.84314,19.1705739 147.779624,19.0882937 C147.651415,18.2666189 147.364416,17.668115 146.918626,17.2995448 C146.474012,16.934356 145.856493,16.7506345 145.061364,16.7607786 C144.428553,16.7675414 143.899251,16.9185763 143.471105,17.2138833 C143.042958,17.5080631 142.820651,17.9014301 142.804184,18.3872214 C142.811241,18.7839697 142.981794,19.1378873 143.31349,19.4523554 C143.642834,19.7645693 144.072157,20.048605 144.596754,20.3022084 C145.208392,20.5884983 145.749456,20.8668985 146.23759,21.1419172 C146.716315,21.418063 147.155048,21.6908275 147.55026,21.9590835 C148.194832,22.3896456 148.713548,22.894598 149.115818,23.4728136 C149.515735,24.0521564 149.723927,24.7058894 149.734513,25.4407755 Z M135.706383,15.4571485 C136.609665,15.5203833 137.192177,16.9483398 137.203315,18.0796676 C137.224477,20.3296764 135.746479,19.8789848 135.746479,19.8789848 C135.312102,19.85714 134.828718,19.7686113 134.305237,19.6179976 C133.780643,19.4650843 133.273869,19.3800048 132.791599,19.3570103 C132.211315,19.3558606 131.820375,19.5478644 131.621007,19.9330218 C131.427208,20.3158797 131.335877,20.9068375 131.350356,21.7024461 C131.34256,22.5520917 131.333649,23.4718704 131.322512,24.4560337 C131.302463,25.4413467 131.322512,26.2702972 131.381542,26.9428854 C131.382656,27.123392 131.401591,27.3234439 131.43389,27.5430411 C131.460621,27.7591891 131.487352,27.9833851 131.504059,28.216779 L133.576819,28.5065093 C133.648102,28.7720954 133.681516,28.9813451 133.667036,29.1296594 C133.657012,29.2756742 133.648102,29.4297372 133.641419,29.580351 C133.317307,29.7068205 133.025494,29.8010978 132.76264,29.8574343 C132.499786,29.9091719 132.238046,29.9367652 131.977419,29.9367652 C131.663331,29.9310166 131.247888,29.9091719 130.723293,29.8700813 C130.195358,29.8332901 129.560498,29.8125951 128.807577,29.8056967 C128.242886,29.8056967 127.765071,29.8206431 127.378587,29.8574343 C126.99433,29.8884768 126.516514,29.9367652 125.951824,30 C125.888338,29.8125951 125.840445,29.655083 125.809259,29.5297631 C125.778073,29.4078924 125.762479,29.2837223 125.762479,29.1595522 C125.732407,29.1055152 125.716814,29.0468793 125.716814,28.9801953 C125.716814,28.9123616 125.732407,28.852576 125.762479,28.8008385 C125.876086,28.7674965 126.027561,28.7134595 126.201312,28.6456258 C126.379518,28.5777921 126.557724,28.507659 126.734817,28.440975 C126.905226,28.3938364 127.070067,28.2765646 127.231566,28.096058 C127.39418,27.9144017 127.478828,27.5614366 127.489965,27.0406119 C127.501103,25.2171506 127.523379,23.7696488 127.553451,22.7073044 C127.580182,21.6438102 127.538972,20.7746193 127.428707,20.10663 C127.362994,19.8352953 127.178105,19.5076241 126.869585,19.1190176 C126.561066,18.7304111 126.234726,18.3464035 125.888338,17.9623958 L125.888338,17.0840071 C126.246977,16.9529387 126.590024,16.7908277 126.907454,16.5953747 C127.228225,16.3999217 127.631417,16.1711268 128.118142,15.9101395 C128.47901,15.716986 128.760798,15.5813186 128.963508,15.5054369 C129.169558,15.426106 129.387861,15.3893148 129.621757,15.3916143 C130.138554,15.3985126 130.513901,15.5916662 130.750024,15.9825721 C130.982806,16.3677295 131.101981,16.8966022 131.097526,17.5726396 C131.093071,17.8865141 131.108664,18.0900151 131.140964,18.1900411 C131.174378,18.2843184 131.241205,18.3291576 131.350356,18.3199598 C131.413842,18.3153609 131.473987,18.2774201 131.535245,18.2061372 C131.599845,18.1383035 131.662217,18.0658709 131.724589,17.9934384 C132.270346,17.0587132 132.767095,16.3884245 133.217066,15.987171 C133.667036,15.5778695 134.198313,15.3824165 134.805328,15.3916143 C135.178447,15.3893148 135.473601,15.4111596 135.706383,15.4571485 Z M50.087263,19.5266221 C50.1164376,19.4558403 50.1276586,19.3641721 50.1175597,19.2458158 C50.109705,19.1286198 50.087263,19.0021409 50.0558442,18.8686999 C49.7539992,17.8603501 49.4465438,16.8450381 49.1334778,15.822764 C48.821534,14.7981692 48.5062239,13.700472 48.1875474,12.5261912 C48.1336866,12.4055141 48.093291,12.2825163 48.0652385,12.1641599 C48.0383081,12.0423225 47.9732263,11.9785029 47.8711152,11.9715407 C47.8071554,11.9761822 47.7398294,12.0307189 47.6736255,12.1316699 C47.6074216,12.2314606 47.5591713,12.3428548 47.5255083,12.4646923 C47.2517159,13.2688193 46.9655803,14.1100778 46.659247,14.986147 C46.3529136,15.8587351 46.0690223,16.6617018 45.8154277,17.3915661 C45.5562225,18.1144682 45.3699539,18.6633168 45.2465229,19.0323102 C45.1444118,19.2875886 45.1253361,19.4651232 45.1825632,19.5579517 C45.2285693,19.6043659 45.2857964,19.6287334 45.3520003,19.6287334 C45.4193263,19.6287334 45.5001175,19.6287334 45.5943739,19.6252524 C46.3214948,19.6252524 47.0733019,19.6287334 47.8475511,19.6356956 C48.6229223,19.6426577 49.2322227,19.6380163 49.6765743,19.6252524 C49.7708307,19.6252524 49.8583546,19.6148091 49.9290469,19.5997245 C50.0008613,19.5823192 50.0536,19.5579517 50.087263,19.5266221 Z M59.4814856,28.3047191 C59.6195039,28.3395298 59.7687432,28.3592559 59.9292035,28.3604162 L59.9292035,29.7377594 C59.7451791,29.8027394 59.5791083,29.8526347 59.4366016,29.8851247 C59.2940948,29.9176147 59.1291461,29.9338597 58.9462438,29.9338597 C58.5243341,29.9257372 57.9812377,29.8909265 57.3214428,29.8375501 C56.6571595,29.7806926 55.8391484,29.7458819 54.8662876,29.7377594 C54.2423999,29.7342784 53.4681508,29.7470423 52.5390518,29.7714098 C51.6121971,29.7922962 50.8345817,29.8375501 50.2129382,29.9025301 L50.087263,28.4926969 C50.2836305,28.4926969 50.491219,28.4602069 50.7212496,28.3929062 C51.2609798,28.3232848 51.6817673,28.1944853 51.9757576,28.0215921 C52.2753583,27.8452179 52.4234755,27.562091 52.4257197,27.1791733 C52.406644,26.6999461 52.2372069,25.9213468 51.9275073,24.8491774 C51.6144413,23.7735269 51.2957649,22.7129611 50.9726,21.6570366 C50.9198613,21.5642081 50.8660005,21.4667382 50.8110176,21.3646268 C50.7560347,21.261355 50.7234938,21.2044976 50.7212496,21.1986958 C50.5619114,21.1023862 50.2768979,21.0617737 49.8662093,21.0687359 C49.3242349,21.0733773 48.6666842,21.0977448 47.8958014,21.1476401 C47.1237964,21.1963751 46.3562799,21.2219029 45.5943739,21.2277047 C45.1208477,21.2277047 44.8032933,21.2915243 44.6372225,21.4052393 C44.4711517,21.524756 44.3600637,21.7057716 44.296104,21.9506068 C43.9224447,23.0749923 43.6026461,24.0833421 43.3445631,24.9814581 C43.0831138,25.8772533 42.9495838,26.5316944 42.9372407,26.947102 C42.9215313,27.3207368 43.0146656,27.6119863 43.22001,27.812728 C43.4253543,28.0215921 43.8382872,28.1701178 44.4543202,28.2629463 C44.7752408,28.3232848 45.1444118,28.3696991 45.561833,28.3929062 L45.5304142,29.7377594 C45.2880406,29.8004187 45.0849404,29.8445122 44.9256022,29.8688797 C44.7640198,29.8897661 44.5844838,29.9048508 44.3926046,29.9025301 C43.9729392,29.8955679 43.5611284,29.8688797 43.1538061,29.8213051 C42.7476058,29.7725701 42.2942773,29.7447216 41.797187,29.7377594 C41.3763994,29.7412405 40.8265703,29.7679287 40.1443334,29.8213051 C39.4643407,29.8712004 38.8000574,29.9326993 38.1604603,30 L38,28.6238172 C38.784348,28.4242358 39.400381,28.0680064 39.8548316,27.5528081 C40.3092821,27.0364494 40.7457791,26.279897 41.1643225,25.2727075 C41.7567914,23.9232129 42.3503823,22.4321548 42.9507059,20.7983728 C43.5476632,19.1680719 44.1109575,17.5586574 44.6450772,15.97245 C45.1791969,14.387403 45.6392579,12.9903338 46.0308709,11.7800819 C46.424728,10.5721508 46.7131078,9.71580767 46.8903996,9.21105259 C47.0497378,8.7411082 47.2000993,8.35122841 47.342606,8.03677179 C47.342606,8.03677179 47.6624045,7.09572265 47.9709821,6.58284507 C48.0686048,6.40647088 48.9326219,6.16163565 49.6260798,6.0189118 C50.311683,5.87850866 50.5877197,6.56543972 50.5944523,6.58052436 C51.1846769,8.30829521 52.1665146,11.4853514 52.171003,11.4992756 C52.2248638,11.7093002 52.2787246,11.9112022 52.3325854,12.1015007 C52.5637381,12.8592135 52.8958797,13.8965722 53.3290104,15.220539 C53.762141,16.5433454 54.2379115,17.9485372 54.7551997,19.438435 C55.2713658,20.9306534 55.7718224,22.3045156 56.2576918,23.562342 C56.7401949,24.8271306 57.1239531,25.7716608 57.4179434,26.3994137 C57.7096894,27.0306477 57.9778714,27.464621 58.2280997,27.7048148 C58.478328,27.9426879 58.7790509,28.1051378 59.1347566,28.196806 C59.2323793,28.232777 59.3479557,28.2687481 59.4814856,28.3047191 Z M112.135833,16.0426842 C112.149736,16.2748249 112.13815,16.4931064 112.104551,16.6917542 C111.730332,16.8164865 111.40709,17.0001202 111.135984,17.2542045 C110.866036,17.5036691 110.633163,17.862852 110.438523,18.3259784 C109.802466,19.9013013 109.113115,21.6221452 108.362359,23.4873552 C107.613921,25.3514103 106.890971,27.1554091 106.191193,28.8878022 C106.103141,29.0899148 105.993077,29.2770132 105.856365,29.4490976 C105.793802,29.5276328 105.735874,29.5923088 105.679103,29.6523651 C105.593369,29.718196 105.506476,29.7782523 105.410314,29.8140551 C105.002497,29.9641959 103.908803,29.9930691 103.461594,29.9988437 C102.97731,28.7665347 102.486075,27.4949581 101.98673,26.1852689 C101.471165,24.8293825 101.007736,23.6282565 100.605711,22.581891 C100.576746,22.5102854 100.553575,22.4479193 100.532721,22.3855531 C100.510708,22.323187 100.468999,22.2931588 100.409912,22.2850743 C100.356617,22.2977785 100.303323,22.3416658 100.255822,22.4352151 C100.202527,22.5218347 100.166611,22.6061445 100.148074,22.6777501 C99.8294665,23.5451016 99.5479332,24.2842561 99.3139014,24.8952134 C99.0798696,25.5061707 98.8469963,26.1055788 98.6187574,26.6888178 C98.3905184,27.2720569 98.1286808,27.9488451 97.8262932,28.7261122 C97.6409214,29.2146471 97.3999382,29.5761398 97.1010262,29.8140551 C96.5843025,30.0023085 94.9553484,30 94.9553484,30 C94.3737445,28.7642249 93.7631764,27.4175779 93.1132167,25.9612127 C92.4620985,24.5036925 91.8422617,23.1039188 91.2502307,21.7595817 C90.6593583,20.4175545 90.1634889,19.2961186 89.7603054,18.3941192 C89.5679822,17.9748801 89.3466947,17.6515 89.0941257,17.4285987 C88.8427153,17.2056975 88.5299005,17.0497821 88.159157,16.953923 C88.1313512,16.7541203 88.1220826,16.5046557 88.1267169,16.2043742 C88.1093383,15.9595293 88.1719013,15.7735858 88.3225158,15.6500084 C88.4684961,15.5275859 88.7963723,15.4733043 89.3003518,15.4871634 C89.7046939,15.5044874 90.1264146,15.5137268 90.567831,15.5148817 C91.0092475,15.5183465 91.4193825,15.5206564 91.7854916,15.5206564 C92.5269786,15.5275859 93.2093783,15.5137268 93.8338493,15.4756141 C94.4629547,15.4398114 94.9958984,15.4305719 95.4442663,15.4571353 C95.5079879,15.721614 95.5346351,15.9375857 95.5300008,16.1119799 C95.5288422,16.2817544 95.5137807,16.4769374 95.477865,16.6917542 C95.0329728,16.7252471 94.6888765,16.808402 94.4432589,16.9504582 C94.1999585,17.0925145 94.0759912,17.3004016 94.0713569,17.5752747 C94.0713569,17.8085703 94.1026384,18.0233871 94.1663599,18.2093306 C94.2242886,18.3987389 94.3158159,18.6354993 94.4281975,18.9196118 C94.6772908,19.5629072 94.9958984,20.3621179 95.3874962,21.3056947 C95.7837283,22.2458067 96.1521547,23.1200878 96.4997267,23.9239183 C96.8472987,24.7254389 97.0720619,25.2370723 97.1751749,25.4565088 C97.2029807,25.5754665 97.2342622,25.6678608 97.2690194,25.7429311 C97.302618,25.8122269 97.3593881,25.8503395 97.4358539,25.8526494 C97.4856726,25.842255 97.5331741,25.793748 97.5783585,25.7048185 C97.6247014,25.614734 97.6640929,25.5327341 97.696533,25.4565088 C98.0753864,24.54527 98.3893598,23.7460593 98.6372945,23.0646513 C98.8840707,22.3786236 99.149384,21.5967368 99.4286001,20.7155261 C99.434393,20.5861741 99.4494545,20.4614418 99.4795774,20.3424841 C99.5085417,20.2177518 99.5224446,20.0930195 99.5270789,19.9636674 C99.5178103,19.7627098 99.4459787,19.484372 99.3139014,19.1309638 C99.1841412,18.7775556 99.0543809,18.4576403 98.9223036,18.1689081 C98.7913848,17.877866 98.7218704,17.7254154 98.7102847,17.7080915 C98.5098515,17.4274438 98.3488098,17.2415003 98.2213667,17.1514158 C98.0950822,17.0613314 97.9317233,16.9735568 97.7301316,16.8880921 C97.6606172,16.8904019 97.5957371,16.8788526 97.530857,16.8615287 C97.4648183,16.8430498 97.4242682,16.808402 97.4034139,16.759895 C97.4010967,16.5958951 97.3999382,16.4157262 97.4010967,16.2263179 C97.4010967,16.0345997 97.4242682,15.8301773 97.468294,15.6188253 C97.737083,15.5853324 98.1252051,15.5680085 98.6349774,15.5633887 C99.1424325,15.5529944 99.8329422,15.5529944 100.703031,15.5529944 C101.610194,15.5529944 102.319241,15.5379803 102.827854,15.5148817 C103.341102,15.4952479 103.897218,15.4733043 104.495041,15.4571353 C104.563397,15.5853324 104.613216,15.7504872 104.643339,15.9537547 C104.676937,16.1581771 104.668827,16.4007121 104.622485,16.6917542 C104.186861,16.7633598 103.825386,16.8511343 103.535743,16.9654723 C103.249575,17.0763455 103.100119,17.2773031 103.087375,17.5752747 C103.087375,17.7739225 103.118656,18.0014434 103.183536,18.2566827 C103.243782,18.5176966 103.332992,18.802964 103.446533,19.1124849 C103.572817,19.4427946 103.760506,19.9578928 104.008441,20.6600895 C104.254058,21.3599764 104.524006,22.1210744 104.814808,22.9329894 C105.10561,23.7460593 105.380192,24.4771292 105.636236,25.1319738 C105.669835,25.2682554 105.710385,25.3872131 105.760204,25.4923116 C105.808864,25.5962552 105.864475,25.6493819 105.929355,25.6551565 C106.024358,25.6459171 106.09619,25.5904805 106.142533,25.4842271 C106.191193,25.3791286 106.228267,25.2705653 106.257232,25.1666217 C106.656939,24.2034111 107.033476,23.1812991 107.387999,22.0933561 C107.741364,21.0065681 108.02869,20.1230476 108.249978,19.4393298 C108.398275,18.9912174 108.515291,18.640119 108.606818,18.3779502 C108.693711,18.1180912 108.738896,17.8928801 108.738896,17.7080915 C108.738896,17.4944297 108.642734,17.3200354 108.456204,17.1872186 C108.265039,17.052092 107.989299,16.953923 107.628982,16.8880921 C107.476051,16.8788526 107.312692,16.8684583 107.136589,16.8615287 C106.963961,16.8534442 106.800602,16.8222611 106.648829,16.759895 C106.595535,16.6351627 106.561936,16.4272755 106.550351,16.143163 C106.536448,15.8590505 106.572364,15.6604028 106.648829,15.5529944 C106.728771,15.5483747 106.823774,15.5322057 106.93268,15.5044874 C107.040427,15.4756141 107.172505,15.4594451 107.331229,15.4571353 C107.552517,15.4998677 107.802768,15.5229662 108.084302,15.5252761 C108.362359,15.5252761 108.634624,15.5229662 108.901096,15.5206564 C109.264888,15.5148817 109.724842,15.4929381 110.293701,15.4571353 C110.855609,15.4155579 111.417517,15.3936142 111.973633,15.3913043 C112.069794,15.592262 112.124247,15.8070787 112.135833,16.0426842 Z" id="ANSWERS-LOGO"></path>
            </g>
        </g>
    </g>
</svg>
