<?xml version="1.0" encoding="utf-8"?>
<!-- Generator: Adobe Illustrator 22.0.1, SVG Export Plug-In . SVG Version: 6.00 Build 0)  -->
<svg version="1.1" id="Layer_1" xmlns="http://www.w3.org/2000/svg" xmlns:xlink="http://www.w3.org/1999/xlink" x="0px" y="0px"
	 viewBox="0 0 1541 203.3" style="enable-background:new 0 0 1541 203.3;" xml:space="preserve">
<style type="text/css">
	.st0{fill:#D52A28;}
	.st1{fill:#FFFFFF;}
</style>
<g>
	<path class="st1" d="M309.2,131v9.5c-7.3,2.3-15.3,3.4-24.2,3.4c-13.2,0-23.2-3.7-30-11c-6.8-7.4-10.2-17.5-10.2-30.3
		c0-14.2,3.3-25.3,9.8-33.2c6.5-7.9,16.6-11.8,30.2-11.8c8.9,0,17,1.3,24.3,3.9v9.4c-7.4-2.8-15.2-4.2-23.4-4.2
		c-10.8,0-18.6,3-23.3,9.1c-4.7,6.1-7,15-7,26.8c0,21.5,10.2,32.2,30.5,32.2C294.9,134.8,302.6,133.6,309.2,131z"/>
	<path class="st1" d="M390.7,133.5c-6.3,6.9-16,10.4-29.2,10.4c-13.2,0-22.9-3.5-29.2-10.4c-6.3-6.9-9.4-17.9-9.4-32.8
		c0-14.9,3.1-25.8,9.4-32.8c6.3-6.9,16-10.4,29.2-10.4c13.2,0,22.9,3.5,29.2,10.4c6.3,6.9,9.4,17.9,9.4,32.8
		C400.1,115.7,397,126.6,390.7,133.5z M386.5,80.8c-2-5-5-8.6-9.1-10.8c-4.1-2.2-9.4-3.3-15.9-3.3s-11.8,1.1-15.9,3.3
		c-4.1,2.2-7.1,5.8-9.1,10.8c-2,5-3,11.6-3,20c0,8.3,1,15,3,20c2,5,5,8.6,9.1,10.8c4.1,2.2,9.4,3.3,15.9,3.3s11.8-1.1,15.9-3.3
		c4.1-2.2,7.1-5.8,9.1-10.8c2-5,3-11.6,3-20C389.5,92.4,388.5,85.8,386.5,80.8z"/>
	<path class="st1" d="M432.9,142.6h-10.7V58.9h9.6l47.7,67.3V58.9h10.7v83.7h-9.8l-47.6-67.2V142.6z"/>
	<path class="st1" d="M563.5,137.9c-5.4,4-13.4,6-24,6c-10.4,0-18.8-1.3-25.2-3.9v-9.5c7.6,2.9,15.7,4.3,24.3,4.3
		c7.7,0,13.4-1,17-3.1c3.6-2.1,5.4-5.7,5.4-10.9c0-3.2-0.8-5.8-2.3-7.7c-1.5-2-3.9-3.6-7.1-4.9c-3.2-1.3-8-2.8-14.2-4.2
		c-9.2-2.3-15.6-5.2-19.4-8.7c-3.7-3.6-5.6-8.4-5.6-14.6c0-7.3,2.6-12.9,7.9-17c5.2-4,13-6,23.2-6c4.5,0,8.9,0.3,13.1,1
		c4.2,0.7,7.6,1.4,10.1,2.3v9.4c-6.6-2.3-13.7-3.5-21.5-3.5c-7.4,0-12.9,1.1-16.6,3.2c-3.7,2.2-5.5,5.7-5.5,10.7
		c0,2.9,0.6,5.2,2,6.9c1.3,1.7,3.5,3.2,6.6,4.5c3.1,1.3,7.6,2.6,13.7,4.1c9.8,2.3,16.6,5.5,20.5,9.4c3.9,3.9,5.9,9,5.9,15.3
		C571.6,128.2,568.9,133.9,563.5,137.9z"/>
	<path class="st1" d="M623.7,142.6H613V67.3h-27.8v-8.5h66.3v8.5h-27.8V142.6z"/>
	<path class="st1" d="M729.1,100.3c-3,4-7.5,6.7-13.3,8.1c1.6,1,2.9,2.1,3.8,3.3c0.9,1.3,1.9,3.1,3,5.7l10.9,25.2h-10.9L712,118.3
		c-1.2-2.8-2.7-4.7-4.4-5.7c-1.7-1-4.4-1.6-8.3-1.6h-17.7v31.6H671V58.9h36.8c8.8,0,15.3,2.3,19.5,6.8c4.2,4.5,6.4,10.9,6.4,19.2
		C733.7,91.1,732.2,96.3,729.1,100.3z M723,84.9c0-11.7-5.6-17.5-16.8-17.5h-24.6v35.4h23.1C717,102.7,723,96.8,723,84.9z"/>
	<path class="st1" d="M808.5,129.1c4.2-3.8,6.3-9.5,6.3-17V58.9h10.7v53c0,10.4-3,18.3-9,23.8c-6,5.5-14.7,8.2-26.1,8.2
		c-11.4,0-20.2-2.7-26.2-8.2c-6-5.5-9-13.4-9-23.8v-53h10.7v53.2c0,7.5,2.1,13.2,6.4,17c4.2,3.8,10.3,5.7,18.2,5.7
		C798.3,134.8,804.3,132.9,808.5,129.1z"/>
	<path class="st1" d="M911.3,131v9.5c-7.3,2.3-15.3,3.4-24.2,3.4c-13.2,0-23.2-3.7-30-11c-6.8-7.4-10.2-17.5-10.2-30.3
		c0-14.2,3.3-25.3,9.8-33.2c6.5-7.9,16.6-11.8,30.2-11.8c8.9,0,17,1.3,24.3,3.9v9.4c-7.4-2.8-15.2-4.2-23.4-4.2
		c-10.8,0-18.6,3-23.3,9.1c-4.7,6.1-7,15-7,26.8c0,21.5,10.2,32.2,30.5,32.2C896.9,134.8,904.6,133.6,911.3,131z"/>
	<path class="st1" d="M963.4,142.6h-10.7V67.3h-27.8v-8.5h66.3v8.5h-27.8V142.6z"/>
	<path class="st1" d="M1010.7,58.9h10.7v83.7h-10.7V58.9z"/>
	<path class="st1" d="M1111.3,133.5c-6.3,6.9-16,10.4-29.2,10.4c-13.2,0-22.9-3.5-29.2-10.4c-6.3-6.9-9.4-17.9-9.4-32.8
		c0-14.9,3.1-25.8,9.4-32.8c6.3-6.9,16-10.4,29.2-10.4c13.2,0,22.9,3.5,29.2,10.4c6.3,6.9,9.4,17.9,9.4,32.8
		C1120.7,115.7,1117.6,126.6,1111.3,133.5z M1107,80.8c-2-5-5-8.6-9.1-10.8c-4.1-2.2-9.4-3.3-15.9-3.3s-11.8,1.1-15.9,3.3
		c-4.1,2.2-7.1,5.8-9.1,10.8c-2,5-3,11.6-3,20c0,8.3,1,15,3,20c2,5,5,8.6,9.1,10.8c4.1,2.2,9.4,3.3,15.9,3.3s11.8-1.1,15.9-3.3
		c4.1-2.2,7.1-5.8,9.1-10.8c2-5,3-11.6,3-20C1110,92.4,1109,85.8,1107,80.8z"/>
	<path class="st1" d="M1153.4,142.6h-10.7V58.9h9.6l47.7,67.3V58.9h10.7v83.7h-9.8l-47.6-67.2V142.6z"/>
	<path class="st1" d="M1241.3,58.9h37.4c13.3,0,23.5,3.4,30.4,10.1c6.9,6.7,10.3,17.5,10.3,32.3c0,14.1-3.4,24.5-10.3,31.3
		c-6.9,6.7-17,10.1-30.4,10.1h-37.4V58.9z M1275.6,123.9c4.3,0,7.8-0.6,10.5-1.9c2.7-1.3,4.7-3.5,6.2-6.8s2.1-7.9,2.1-14
		c0-6.2-0.6-10.9-1.9-14.4c-1.3-3.4-3.3-5.8-6-7.2c-2.7-1.4-6.3-2.1-10.9-2.1h-9.9v46.3H1275.6z"/>
	<path class="st1" d="M1335.1,58.9h24.4v83.7h-24.4V58.9z"/>
	<path class="st1" d="M1372.5,58.9h25.5l19.5,55.4l19.5-55.4h25.6l-32.1,83.7h-25.9L1372.5,58.9z"/>
	<path class="st1" d="M1473,58.9h63.4v18.7h-39v13.7h34.2v19h-34.2v13.7h39v18.7H1473V58.9z"/>
</g>
<g>
	<path class="st1" d="M108.3,78.1c-0.3,0-0.5,0-0.8,0c-0.3,0-0.5,0-0.8,0H82.7v43.4h24c0.2,0,0.5,0,0.7,0c0.2,0,0.5,0,0.7,0h0.8
		v-0.1c9.7-0.9,17.3-10.2,17.3-21.7c0-11.4-7.6-20.8-17.3-21.7v0H108.3z"/>
	<path class="st1" d="M54.8,123.2V50c0,0,38.2,0,52,0s18.2,2.9,18.2,2.9l31.3-30.2c-15.7-11.3-35.1-18-55.9-18
		c-53,0-95.9,43-95.9,95.9c0,21,6.7,40.4,18.1,56.1L54.8,123.2z"/>
	<path class="st1" d="M177.6,43.7l-30.1,30c0,0,1.4,2.9,3.5,8.3c2.1,5.4,4.2,13.8,2.8,23.4s-4,21.1-13.6,30.9
		c-9.6,9.8-18.9,12.9-30.5,13.1c-11.6,0.2-37.8,0-37.8,0l-28.6,28.3c16,11.9,35.7,18.9,57.2,18.9c53,0,95.9-43,95.9-95.9
		C196.3,79.3,189.4,59.6,177.6,43.7z"/>
</g>
</svg>
