<?xml version="1.0" encoding="utf-8"?>
<!-- Generator: Adobe Illustrator 22.1.0, SVG Export Plug-In . SVG Version: 6.00 Build 0)  -->
<svg version="1.1" id="Layer_1" xmlns="http://www.w3.org/2000/svg" xmlns:xlink="http://www.w3.org/1999/xlink" x="0px" y="0px"
	 viewBox="0 0 100 100" style="enable-background:new 0 0 100 100;" xml:space="preserve">
<g>
	<path d="M85,0H15c-3.7,0-6.7,3-6.7,6.7v86.6c0,3.7,3,6.7,6.7,6.7h70c3.7,0,6.7-3,6.7-6.7V6.7C91.6,3,88.7,0,85,0z M16.6,14.1
		c0-0.9,0.7-1.7,1.7-1.7h33.3c0.9,0,1.7,0.7,1.7,1.7v5c0,0.9-0.7,1.7-1.7,1.7H18.3c-0.9,0-1.7-0.7-1.7-1.7V14.1z M66.6,86
		c0,0.9-0.7,1.7-1.7,1.7H18.3c-0.9,0-1.7-0.7-1.7-1.7v-5c0-0.9,0.7-1.7,1.7-1.7h46.6c0.9,0,1.7,0.7,1.7,1.7V86z M83.3,69.2
		c0,0.9-0.7,1.7-1.7,1.7H18.3c-0.9,0-1.7-0.7-1.7-1.7v-5c0-0.9,0.7-1.7,1.7-1.7h63.3c0.9,0,1.7,0.7,1.7,1.7V69.2z M83.3,52.5
		c0,0.9-0.7,1.7-1.7,1.7H18.3c-0.9,0-1.7-0.7-1.7-1.7v-5c0-0.9,0.7-1.7,1.7-1.7h63.3c0.9,0,1.7,0.7,1.7,1.7V52.5z M83.3,35.8
		c0,0.9-0.7,1.7-1.7,1.7H18.3c-0.9,0-1.7-0.7-1.7-1.7v-5c0-0.9,0.7-1.7,1.7-1.7h63.3c0.9,0,1.7,0.7,1.7,1.7V35.8z"/>
</g>
</svg>
