<?xml version="1.0" encoding="utf-8"?>
<!-- Generator: Adobe Illustrator 22.1.0, SVG Export Plug-In . SVG Version: 6.00 Build 0)  -->
<svg version="1.1" id="Layer_1" xmlns="http://www.w3.org/2000/svg" xmlns:xlink="http://www.w3.org/1999/xlink" x="0px" y="0px"
	 viewBox="0 0 100 100" style="enable-background:new 0 0 100 100;" xml:space="preserve">
<g>
	<path d="M47.8,94.3c0,0,3.5-1.7,5.9-5.9c9.3-16.5,7-26.2-7.4-38.8c1.1,5.2,0.6,19.3-4.5,27.4c-7.9,12.3-18.3,17.1-27.5,11.7
		c-12.9-7.5-16.6-26.6-8-38.9c1.5-2.1,3.1-4.7,8-6.8c-0.4,8.1,0.3,22.7,11.5,20.4c11.7-2.4,5.3-15.7,3.9-22.7
		c-3.2-16,5.9-28.3,24.7-39.1c-0.8,5.6-2.9,14.6-3.2,19.5c-0.7,9.8,3.9,18.4,13.5,21.8c8.1,2.9,9.1-5,7.2-11.4
		c-1-3.4-2-6.9-3.3-11.1c14.5,7.7,31.9,29.3,29.7,44.8c-3,17.1-21.3,27.3-31.3,31C52.2,101.7,47.8,94.3,47.8,94.3z"/>
</g>
</svg>
