<svg id="Layer_1" data-name="Layer 1" xmlns="http://www.w3.org/2000/svg" viewBox="0 0 100 91.78"><title>home</title><path d="M99.38,38.49L87.82,30.4V5.59a1.49,1.49,0,0,0-1.5-1.49H74.92a1.48,1.48,0,0,0-1.49,1.49V20.33L50.84,4.53a1.46,1.46,0,0,0-1.69,0l-48.52,34a1.45,1.45,0,0,0-.61,1,1.51,1.51,0,0,0,.24,1.11L6.87,50a1.5,1.5,0,0,0,1.23.64A1.43,1.43,0,0,0,9,50.35l2.9-2V94.4a1.5,1.5,0,0,0,1.5,1.49H38.85a1.49,1.49,0,0,0,1.49-1.49V60H59.65V94.4a1.5,1.5,0,0,0,1.5,1.49H86.46a1.49,1.49,0,0,0,1.48-1.49V48.18l3.11,2.17A1.47,1.47,0,0,0,93.13,50l6.6-9.42A1.51,1.51,0,0,0,99.38,38.49Z" transform="translate(0 -4.11)"/></svg>