<svg id="Layer_1" data-name="Layer 1" xmlns="http://www.w3.org/2000/svg" viewBox="0 0 90 71.6"><title>jobs</title><path d="M44.2,46.4a9.33,9.33,0,1,0,13.2,0A9.42,9.42,0,0,0,44.2,46.4Z" transform="translate(-5.4 -14.5)"/><path d="M83.4,26.1H68.9V19a4.48,4.48,0,0,0-4.5-4.5h-28A4.48,4.48,0,0,0,31.9,19v7.1H17.4a12,12,0,0,0-12,12v36a12,12,0,0,0,12,12h66a12,12,0,0,0,12-12v-36A12,12,0,0,0,83.4,26.1ZM35,20a2.33,2.33,0,0,1,2.3-2.3H63.7A2.33,2.33,0,0,1,66,20v6.1H35V20ZM68.1,73.3l-10-10a12.59,12.59,0,1,1,3-3l10,10Z" transform="translate(-5.4 -14.5)"/></svg>