<svg id="Layer_1" data-name="Layer 1" xmlns="http://www.w3.org/2000/svg" viewBox="0 0 90 70.28"><title>topics</title><path d="M95,75.86a9.28,9.28,0,1,1-9.28-9.28A9.28,9.28,0,0,1,95,75.86ZM14.28,66.58a9.28,9.28,0,1,0,9.28,9.28A9.28,9.28,0,0,0,14.28,66.58ZM58.7,24.14a9.28,9.28,0,1,0-9.28,9.28A9.28,9.28,0,0,0,58.7,24.14ZM35.44,38.05L42,42.58l4.47-6.46L39.91,31.6ZM22,57.42l-4.47,6.45,6.54,4.53,4.47-6.45ZM26.51,51L33,55.49,37.52,49,31,44.51Zm42.35-6.45L62.31,49l4.47,6.45L73.32,51Zm-4.47-6.46L59.92,31.6l-6.54,4.53,4.47,6.45Zm13.4,19.36-6.54,4.53,4.47,6.45,6.54-4.53ZM67.6,79.84h7.07v-8H67.6v8Zm-42.44,0h7.07v-8H25.16v8Zm28.29,0h7.07v-8H53.45v8Zm-14.14,0h7.07v-8H39.31v8Z" transform="translate(-5 -14.86)"/></svg>