<svg id="NO_Shadow" data-name="NO Shadow" xmlns="http://www.w3.org/2000/svg" viewBox="0 0 311.77 74.43" width="197px" height="47px"><defs><style>.cls-1{fill:#fff;}.cls-2{fill:#fee953;}.cls-3{fill:#1f3d73;}</style></defs><title>the-weather-network-logo</title><path class="cls-1" d="M105.86,22V47.63H99.8V22H91.68V16.57H114V22h-8.11Z" transform="translate(-12.4 -12.85)"/><path class="cls-1" d="M129.77,47.63V33.76c0-3-1.92-4-3.71-4s-3.67,1-3.67,4V47.63h-5.67V16.57h5.67V27a7.51,7.51,0,0,1,5.45-2.36c5,0,7.59,3.49,7.59,8.29v14.7h-5.67Z" transform="translate(-12.4 -12.85)"/><path class="cls-1" d="M143.81,38a4.69,4.69,0,0,0,5,5.06A6.29,6.29,0,0,0,153.93,41l3.45,3.36a10.82,10.82,0,0,1-8.64,3.58c-5.36,0-10.51-2.44-10.51-11.65,0-7.42,4-11.61,9.9-11.61,6.33,0,9.9,4.62,9.9,10.86V38H143.81Zm8.11-6.33a4.24,4.24,0,0,0-7.59,0,6.24,6.24,0,0,0-.52,2.44h8.64A6.29,6.29,0,0,0,151.92,31.71Z" transform="translate(-12.4 -12.85)"/><path class="cls-1" d="M196.8,47.63h-5.06L186,28.78l-5.71,18.85h-5.06L167,16.57h6.33l4.8,19.59,5.67-19.59h4.54L194,36.16l4.84-19.59h6.32Z" transform="translate(-12.4 -12.85)"/><path class="cls-1" d="M209.88,38a4.7,4.7,0,0,0,5,5.06A6.29,6.29,0,0,0,220,41l3.44,3.36a10.82,10.82,0,0,1-8.64,3.58c-5.37,0-10.51-2.44-10.51-11.65,0-7.42,4-11.61,9.9-11.61,6.33,0,9.9,4.62,9.9,10.86V38H209.88ZM218,31.71a4.24,4.24,0,0,0-7.59,0,6.25,6.25,0,0,0-.52,2.44h8.64A6.25,6.25,0,0,0,218,31.71Z" transform="translate(-12.4 -12.85)"/><path class="cls-1" d="M239.41,47.63v-2a6.91,6.91,0,0,1-5.58,2.18,7.76,7.76,0,0,1-5.8-2,7.28,7.28,0,0,1-1.88-5.1c0-3.62,2.49-6.59,7.76-6.59h5.37V33c0-2.49-1.22-3.58-4.23-3.58a4.88,4.88,0,0,0-4.36,1.88l-3.62-3.53c2.23-2.44,4.41-3.14,8.2-3.14,6.37,0,9.68,2.71,9.68,8v15h-5.54ZM239.28,38h-4.49c-2,0-3.18,1-3.18,2.57s1,2.62,3.27,2.62c1.57,0,2.57-.13,3.58-1.09a3.73,3.73,0,0,0,.83-2.88V38Z" transform="translate(-12.4 -12.85)"/><path class="cls-1" d="M256.43,47.63a6.16,6.16,0,0,1-6.59-6.5V29.88h-2.4V25.56h2.4V18.84h5.67v6.72h4v4.32h-4V40.78a1.78,1.78,0,0,0,2,2.05h2.05v4.8h-3.1Z" transform="translate(-12.4 -12.85)"/><path class="cls-1" d="M111.57,83.1L99.27,64V83.1H93.21V52h5.41l12.3,19V52H117V83.1h-5.41Z" transform="translate(-12.4 -12.85)"/><path class="cls-1" d="M126.06,73.5a4.69,4.69,0,0,0,5,5.06,6.3,6.3,0,0,0,5.15-2.14l3.44,3.36A10.82,10.82,0,0,1,131,83.36c-5.36,0-10.51-2.44-10.51-11.64,0-7.42,4-11.6,9.9-11.6,6.33,0,9.9,4.62,9.9,10.86V73.5H126.06Zm8.12-6.33a4.24,4.24,0,0,0-7.59,0,6.34,6.34,0,0,0-.52,2.44h8.64A6.26,6.26,0,0,0,134.17,67.18Z" transform="translate(-12.4 -12.85)"/><path class="cls-1" d="M151.09,83.1a6.16,6.16,0,0,1-6.59-6.5V65.35h-2.4V61h2.4V54.31h5.67V61h4v4.32h-4V76.25a1.78,1.78,0,0,0,2,2h2v4.8h-3.1Z" transform="translate(-12.4 -12.85)"/><path class="cls-1" d="M181.24,83.1h-4.67l-4.75-14.27L167.06,83.1h-4.67l-7-22.73h6l3.67,14,4.62-14h4.14l4.67,14,3.66-14h6Z" transform="translate(-12.4 -12.85)"/><path class="cls-1" d="M205.49,80.57a9.43,9.43,0,0,1-7.07,2.79,9.32,9.32,0,0,1-7-2.79c-2.05-2.14-2.58-4.71-2.58-8.86s0.52-6.68,2.58-8.81a9.32,9.32,0,0,1,7-2.79,9.44,9.44,0,0,1,7.07,2.79c2,2.14,2.57,4.71,2.57,8.81S207.54,78.43,205.49,80.57Zm-4.41-14.35a3.59,3.59,0,0,0-2.66-1,3.48,3.48,0,0,0-2.62,1c-1.18,1.18-1.31,3.14-1.31,5.5s0.13,4.36,1.31,5.54a3.48,3.48,0,0,0,2.62,1,3.59,3.59,0,0,0,2.66-1c1.18-1.18,1.31-3.18,1.31-5.54S202.26,67.4,201.08,66.22Z" transform="translate(-12.4 -12.85)"/><path class="cls-1" d="M242.48,83.1l-5.58-9.47-2.4,2.71V83.1h-5.67V54.29h5.67V69.66L242,60.37h6.85l-8.11,9.16,8.73,13.57h-7Z" transform="translate(-12.4 -12.85)"/><path class="cls-1" d="M223.33,66.57a3.78,3.78,0,0,0-3-1.35c-1.74,0-3.66,1.31-3.66,4.19V83.1H211V60.37h5.54v2.18a7.69,7.69,0,0,1,5.71-2.44,6.86,6.86,0,0,1,5.37,2.14Z" transform="translate(-12.4 -12.85)"/><path class="cls-1" d="M275.79,47.63V33.76c0-3-1.92-4-3.71-4s-3.66,1-3.66,4V47.63h-5.67V16.57h5.67V27a7.51,7.51,0,0,1,5.45-2.36c5,0,7.59,3.49,7.59,8.29v14.7h-5.67Z" transform="translate(-12.4 -12.85)"/><path class="cls-1" d="M290.06,38a4.7,4.7,0,0,0,5,5.06A6.29,6.29,0,0,0,300.18,41l3.44,3.36A10.82,10.82,0,0,1,295,47.89c-5.37,0-10.51-2.44-10.51-11.65,0-7.42,4-11.61,9.9-11.61,6.33,0,9.9,4.62,9.9,10.86V38H290.06Zm8.11-6.33a4.24,4.24,0,0,0-7.59,0,6.32,6.32,0,0,0-.52,2.44h8.64A6.27,6.27,0,0,0,298.17,31.71Z" transform="translate(-12.4 -12.85)"/><path class="cls-1" d="M319.9,31.1a3.78,3.78,0,0,0-3-1.35c-1.74,0-3.66,1.31-3.66,4.19v13.7h-5.67V24.9h5.54v2.18a7.7,7.7,0,0,1,5.72-2.44,6.86,6.86,0,0,1,5.36,2.14Z" transform="translate(-12.4 -12.85)"/><rect class="cls-2" width="73.13" height="74.43" rx="7.99" ry="7.99"/><path class="cls-3" d="M56,80.85a5.37,5.37,0,0,1-1.76-.25c12.66-6.12,28.08-20.94,28.08-27.93a2.6,2.6,0,0,0-1.81-2.61,4.39,4.39,0,0,0-1.41-.24,12.51,12.51,0,0,0,2.23-6.09,3.5,3.5,0,0,0-3.85-3.85,7,7,0,0,0-1,.08,11,11,0,0,0,1.15-4.42c0-2.79-1.86-4-4.34-4a12.66,12.66,0,0,0-2.88.37,9.83,9.83,0,0,0,1-3.91c0-2.11-1.12-3.91-4.66-3.91a13.81,13.81,0,0,0-3.48.51,6.25,6.25,0,0,0,.38-2c0-2.36-1.49-3.48-4-3.48a15.39,15.39,0,0,0-5.41,1.23,4.22,4.22,0,0,0,.07-0.73c0-1.86-1-2.86-3.35-2.86-7.75,0-23.59,12.13-31.21,23.1A5.18,5.18,0,0,1,19.8,39c0-4.22,5.34-13.9,18.87-20.11l-0.37-.75c-14.27,5.9-21.17,17.25-21.17,22a5.3,5.3,0,0,0,.8,2.86,16.3,16.3,0,0,0-2.35,7.07c0,0.09,0,.17,0,0.25a5,5,0,0,0,2.69,4.56,13.61,13.61,0,0,0-1.08,4.87,5.89,5.89,0,0,0,5.24,5.64,12.27,12.27,0,0,0-.21,2.18,6,6,0,0,0,6,6.21c0.37,0,.75,0,1.13,0,0,0.09,0,.19,0,0.28,0,4,2.74,5.83,6.33,5.83a16.44,16.44,0,0,0,3.22-.36c0.85,2.68,3.74,3.83,5.84,3.83a18,18,0,0,0,5.81-1.17,5.88,5.88,0,0,0,4,1.17c6.21,0,18.5-7.57,24-17.38l-0.5-.5C71.25,75.76,60.7,80.85,56,80.85ZM73.36,32.19A3.3,3.3,0,0,1,77,35.6a10,10,0,0,1-1.42,4.56c-4.18,1-10.63,4.82-17,9.9S46.1,61.39,42.33,67.45a36.61,36.61,0,0,1-9.49,3A24.34,24.34,0,0,1,36.48,62,86.55,86.55,0,0,0,54.76,50.06c7-5.83,12.77-12.27,15.32-17.3A11.18,11.18,0,0,1,73.36,32.19ZM75,41.1a47.42,47.42,0,0,1-7.53,9A99.64,99.64,0,0,1,46,65.63,80.26,80.26,0,0,1,60.6,50.06C65.85,45.7,71.15,42.3,75,41.1ZM38.86,58.5a84.18,84.18,0,0,1,7.22-8.44c7.35-7.59,16.27-14.37,22.75-16.86-3,5.06-9.44,11.39-16.68,16.86A90.49,90.49,0,0,1,38.86,58.5ZM67.09,24.86c2.48,0,3.6,1.24,3.6,3.1a9.58,9.58,0,0,1-1.32,4.28C62.09,34.43,52,41.7,43.74,50.06a81.06,81.06,0,0,0-8.59,10.15,25.54,25.54,0,0,1-8.92,2.25,34.42,34.42,0,0,1,4.25-8.74,55.27,55.27,0,0,0,7-3.67C48.47,43.4,60,32.41,63,25.58A13.86,13.86,0,0,1,67.09,24.86ZM32.74,50.46l0.29-.4c7.73-10.3,20-20.83,29-24.14-3.71,6.82-17,18.78-28.38,24.14Zm27-30.57c2.48,0,3.23.62,3.23,3a5.32,5.32,0,0,1-.49,2C53,27.82,39.3,39,30.58,50.06c-0.46.58-.9,1.16-1.33,1.75a18.29,18.29,0,0,1-5.48,1,7.8,7.8,0,0,1-1.72-.17c0.37-.82.81-1.68,1.31-2.56a53.2,53.2,0,0,1,3.81-5.67C37.76,41,51.77,28,54.09,21.35A14.77,14.77,0,0,1,59.77,19.9ZM29.43,41.59c6.8-8.1,16.31-16.26,23.76-19.83C50.54,28.21,37.92,38.22,29.43,41.59ZM51.26,17.48c1.61,0,2.42.87,2.42,2.11a4.87,4.87,0,0,1-.15,1.14C45.18,24.29,34,33.41,26.21,42.57a8.48,8.48,0,0,1-1.57.17,6.27,6.27,0,0,1-3.5-.8C27.18,31.54,44,17.48,51.26,17.48ZM19.16,50.06a6,6,0,0,1-.23-1.74,10,10,0,0,1,.86-3.68,6.18,6.18,0,0,0,2.74.58,12.09,12.09,0,0,0,1.63-.12,56.07,56.07,0,0,0-3.45,5c-0.28.47-.55,0.93-0.8,1.38A3.62,3.62,0,0,1,19.16,50.06Zm4.2,12c-2.32-.79-2.69-2.69-2.69-4.21a9.24,9.24,0,0,1,.29-2.2,10.73,10.73,0,0,0,1.32.08,17.12,17.12,0,0,0,4.78-.8A37.8,37.8,0,0,0,23.35,62.1Zm6.49,8.55c-2.91-.22-4.21-2-4.21-4.45,0-.29,0-0.58,0-0.87a31.46,31.46,0,0,0,7.39-1.9A28.92,28.92,0,0,0,29.84,70.64ZM38.7,77c-0.31,0-.62,0-0.91,0-3.06,0-4.59-1.53-5-3.74a41.16,41.16,0,0,0,7.72-2.52A18.12,18.12,0,0,0,38.7,77Zm10.65,3a12,12,0,0,1-2.5.3,5.56,5.56,0,0,1-4.27-1.76,51.06,51.06,0,0,0,7.17-3.22,11,11,0,0,0-.54,3.25A7.13,7.13,0,0,0,49.35,79.93Zm-7.57-3.55c0-.08,0-0.17,0-0.25a15.62,15.62,0,0,1,2.12-7A95.35,95.35,0,0,0,69.28,50.06a43.63,43.63,0,0,0,6.87-9.26,7.46,7.46,0,0,1,1.49-.17c2.61,0,3,1.86,3,3.1,0,1.71-.91,3.82-2.48,6.14a10.11,10.11,0,0,0-1,.19C69.45,51.84,55.59,63,50.85,72.55A45,45,0,0,1,41.78,76.38ZM77.52,50.76C72.74,57.3,63.16,65.27,54.11,70.7,58.74,62.41,70.69,52.38,77.52,50.76ZM52.19,76.62a9.4,9.4,0,0,1,.61-3.11c10.27-6.13,21-15.54,25.86-23l0.59,0a2.13,2.13,0,0,1,2.36,2c0,6.82-17.31,21.91-29,26.4A6.05,6.05,0,0,1,52.19,76.62Z" transform="translate(-12.4 -12.85)"/></svg>